<svg width="41" height="41" fill="none" xmlns="http://www.w3.org/2000/svg"><path d="M13.325 3.417h14.35c5.467 0 9.908 4.442 9.908 9.908v14.35a9.909 9.909 0 0 1-9.908 9.909h-14.35c-5.467 0-9.908-4.442-9.908-9.909v-14.35a9.908 9.908 0 0 1 9.908-9.908Zm-.342 3.417a6.15 6.15 0 0 0-6.15 6.15v15.033c0 3.4 2.75 6.15 6.15 6.15h15.034a6.15 6.15 0 0 0 6.15-6.15V12.984c0-3.4-2.75-6.15-6.15-6.15H12.983ZM29.47 9.396a2.135 2.135 0 1 1 0 4.27 2.135 2.135 0 0 1 0-4.27ZM20.5 11.96a8.542 8.542 0 1 1 0 17.083 8.542 8.542 0 0 1 0-17.083Zm0 3.416a5.125 5.125 0 1 0 0 10.25 5.125 5.125 0 0 0 0-10.25Z" fill="#fff"/></svg>