<svg width="41" height="41" viewBox="0 0 41 41" fill="none" xmlns="http://www.w3.org/2000/svg">
<path d="M13.325 3.41699H27.675C33.1417 3.41699 37.5834 7.85866 37.5834 13.3253V27.6753C37.5834 30.3032 36.5394 32.8234 34.6813 34.6816C32.8231 36.5397 30.3029 37.5837 27.675 37.5837H13.325C7.85835 37.5837 3.41669 33.142 3.41669 27.6753V13.3253C3.41669 10.6975 4.4606 8.17725 6.31877 6.31908C8.17694 4.4609 10.6972 3.41699 13.325 3.41699ZM12.9834 6.83366C11.3523 6.83366 9.788 7.4816 8.63465 8.63495C7.4813 9.7883 6.83335 11.3526 6.83335 12.9837V28.017C6.83335 31.4166 9.58377 34.167 12.9834 34.167H28.0167C29.6478 34.167 31.212 33.5191 32.3654 32.3657C33.5187 31.2124 34.1667 29.6481 34.1667 28.017V12.9837C34.1667 9.58408 31.4163 6.83366 28.0167 6.83366H12.9834ZM29.4688 9.39616C30.0351 9.39616 30.5783 9.62114 30.9787 10.0216C31.3792 10.4221 31.6042 10.9652 31.6042 11.5316C31.6042 12.0979 31.3792 12.6411 30.9787 13.0415C30.5783 13.442 30.0351 13.667 29.4688 13.667C28.9024 13.667 28.3593 13.442 27.9588 13.0415C27.5583 12.6411 27.3334 12.0979 27.3334 11.5316C27.3334 10.9652 27.5583 10.4221 27.9588 10.0216C28.3593 9.62114 28.9024 9.39616 29.4688 9.39616ZM20.5 11.9587C22.7654 11.9587 24.938 12.8586 26.5399 14.4605C28.1418 16.0623 29.0417 18.2349 29.0417 20.5003C29.0417 22.7657 28.1418 24.9383 26.5399 26.5402C24.938 28.1421 22.7654 29.042 20.5 29.042C18.2346 29.042 16.062 28.1421 14.4601 26.5402C12.8583 24.9383 11.9584 22.7657 11.9584 20.5003C11.9584 18.2349 12.8583 16.0623 14.4601 14.4605C16.062 12.8586 18.2346 11.9587 20.5 11.9587ZM20.5 15.3753C19.1408 15.3753 17.8372 15.9153 16.8761 16.8764C15.915 17.8375 15.375 19.1411 15.375 20.5003C15.375 21.8596 15.915 23.1631 16.8761 24.1242C17.8372 25.0854 19.1408 25.6253 20.5 25.6253C21.8593 25.6253 23.1628 25.0854 24.1239 24.1242C25.0851 23.1631 25.625 21.8596 25.625 20.5003C25.625 19.1411 25.0851 17.8375 24.1239 16.8764C23.1628 15.9153 21.8593 15.3753 20.5 15.3753Z" fill="white"/>
</svg>
